HIERARCHY
ROOT hip
{
	OFFSET	0.00  0.00  0.00 
	CHANNELS 6 Xposition Yposition Zposition Xrotation Zrotation Yrotation
	JOINT abdomen
	{
		OFFSET	0.000000 1.799998 0.000000
		CHANNELS 3 Xrotation Zrotation Yrotation
		JOINT chest
		{
			OFFSET	0.000000 4.464001 -0.360000
			CHANNELS 3 Xrotation Zrotation Yrotation
			JOINT neck
			{
				OFFSET	0.000000 5.400002 -0.144000
				CHANNELS 3 Xrotation Zrotation Yrotation
				JOINT head
				{
					OFFSET	0.000000 1.655998 0.000000
					CHANNELS 3 Xrotation Zrotation Yrotation
					End Site
					{
						OFFSET 0.000000 1.656000 0.000000
					}
				}
			}
			JOINT lCollar
			{
				OFFSET	1.800000 3.528000 -0.432000
				CHANNELS 3 Yrotation Zrotation Xrotation
				JOINT lShldr
				{
					OFFSET	1.728000 0.000000 0.000000
					CHANNELS 3 Zrotation Yrotation Xrotation
					JOINT lForeArm
					{
						OFFSET	5.328000 0.000000 0.000000
						CHANNELS 3 Yrotation Zrotation Xrotation
						JOINT lHand
						{
							OFFSET	4.464000 0.000000 0.000000
							CHANNELS 3 Zrotation Yrotation Xrotation
							End Site
							{
								OFFSET 2.160000 0.000000 0.000000
							}
						}
					}
				}
			}
			JOINT rCollar
			{
				OFFSET	-1.872000 3.528000 -0.432000
				CHANNELS 3 Yrotation Zrotation Xrotation
				JOINT rShldr
				{
					OFFSET	-1.656000 0.000000 0.000000
					CHANNELS 3 Zrotation Yrotation Xrotation
					JOINT rForeArm
					{
						OFFSET	-5.400000 0.000000 0.000000
						CHANNELS 3 Yrotation Zrotation Xrotation
						JOINT rHand
						{
							OFFSET	-4.392000 0.000000 0.000000
							CHANNELS 3 Zrotation Yrotation Xrotation
							End Site
							{
								OFFSET -2.160000 0.000000 0.000000
							}
						}
					}
				}
			}
		}
	}
	JOINT lThigh
	{
		OFFSET	2.808000 -0.864002 0.720000
		CHANNELS 3 Xrotation Zrotation Yrotation
		JOINT lShin
		{
			OFFSET	-1.080000 -10.583999 0.000000
			CHANNELS 3 Xrotation Zrotation Yrotation
			JOINT lFoot
			{
				OFFSET	0.000000 -10.152000 -0.648000
				CHANNELS 3 Xrotation Yrotation Zrotation
				End Site
				{
					OFFSET 0.000000 -1.296000 2.448000
				}
			}
		}
	}
	JOINT rThigh
	{
		OFFSET	-2.808000 -0.864002 0.720000
		CHANNELS 3 Xrotation Zrotation Yrotation
		JOINT rShin
		{
			OFFSET	1.080000 -10.583999 0.000000
			CHANNELS 3 Xrotation Zrotation Yrotation
			JOINT rFoot
			{
				OFFSET	0.000000 -10.152000 -0.648000
				CHANNELS 3 Xrotation Yrotation Zrotation
				End Site
				{
					OFFSET 0.000000 -1.296000 2.448000
				}
			}
		}
	}
}
MOTION
Frames:     12
Frame Time: 0.033333
0.000000 23.112001 0.000000 0.000000 0.000000 0.000000 -0.341797 0.000000 0.000000 -0.429804 0.000000 -0.449113 0.000000 0.000000 0.000000 0.000000 0.000000 0.000000 0.281988 -8.000000 -0.002729 0.000000 -4.000000 0.000000 -8.000000 0.000000 0.000000 -7.000000 0.000000 0.000000 0.000000 8.000000 -0.194249 -0.260207 4.000000 -0.449221 8.000000 0.000000 0.000000 7.000000 0.000000 0.000000 -5.153820 4.988610 0.037356 10.247600 -2.002050 -0.100307 13.659700 2.322260 5.474340 -5.179099 -5.524679 -0.171968 10.498491 2.379151 0.144555 14.951743 -1.316555 -4.776468 
0.000000 23.112001 0.000000 0.000000 0.000000 0.000000 -0.343823 -0.310266 -0.047906 -0.454008 -0.127666 -0.467089 -0.005546 0.052138 -0.004161 0.000000 0.000000 0.000000 0.281988 -8.000000 -0.002729 0.000000 -4.000000 0.000000 -8.000000 0.000000 0.000000 -7.000000 0.000000 0.000000 3.884500 4.725094 -0.689313 2.862737 5.845712 -20.121975 45.464916 1.613950 4.905403 3.095020 2.346584 2.101388 -5.153820 4.988610 0.037356 10.247600 -2.002050 -0.100307 13.659700 2.322260 5.474340 -5.179099 -5.524679 -0.171968 10.498491 2.379151 0.144555 14.951743 -1.316555 -4.776468 
0.000000 23.112001 0.000000 0.000000 0.000000 0.000000 -0.345011 -0.725557 -0.109027 -0.483394 -0.299681 -0.484910 -0.010283 0.176087 -0.009312 0.000000 0.000000 0.000000 0.281988 -8.000000 -0.002729 0.000000 -4.000000 0.000000 -8.000000 0.000000 0.000000 -7.000000 0.000000 0.000000 8.133171 1.143167 -1.230789 6.278456 7.864460 -41.639050 86.442169 3.379208 10.270688 -1.176051 4.913160 4.399781 -5.153820 4.988610 0.037356 10.247600 -2.002050 -0.100307 13.659700 2.322260 5.474340 -5.179099 -5.524679 -0.171968 10.498491 2.379151 0.144555 14.951743 -1.316555 -4.776468 
0.000000 23.112001 0.000000 0.000000 0.000000 0.000000 -0.345290 -1.202037 -0.177020 -0.514969 -0.497848 -0.500921 -0.013810 0.356809 -0.014924 0.000000 0.000000 0.000000 0.281988 -8.000000 -0.002729 0.000000 -4.000000 0.000000 -8.000000 0.000000 0.000000 -7.000000 0.000000 0.000000 11.653499 -1.824717 -1.679440 9.108624 9.537137 -59.467480 120.394745 4.841850 14.716209 -4.714940 7.039751 6.304164 -5.153820 4.988610 0.037356 10.247600 -2.002050 -0.100307 13.659700 2.322260 5.474340 -5.179099 -5.524679 -0.171968 10.498491 2.379151 0.144555 14.951743 -1.316555 -4.776468 
0.000000 23.112001 0.000000 0.000000 0.000000 0.000000 -0.345363 -1.704820 -0.248332 -0.547850 -0.707119 -0.516911 -0.017142 0.555360 -0.020785 0.000000 0.000000 0.000000 0.281988 -8.000000 -0.002729 0.000000 -4.000000 0.000000 -8.000000 0.000000 0.000000 -7.000000 0.000000 0.000000 11.315188 -1.855509 -1.760411 8.970152 9.186487 -59.469173 110.871849 3.941807 14.100003 -4.193124 6.104905 6.256725 -5.153820 4.988610 0.037356 10.247600 -2.002050 -0.100307 13.659700 2.322260 5.474340 -5.179099 -5.524679 -0.171968 10.498491 2.379151 0.144555 14.951743 -1.316555 -4.776468 
0.000000 23.112001 0.000000 0.000000 0.000000 0.000000 -0.345934 -2.199019 -0.319408 -0.581155 -0.912446 -0.534670 -0.021296 0.732798 -0.026683 0.000000 0.000000 0.000000 0.281988 -8.000000 -0.002729 0.000000 -4.000000 0.000000 -8.000000 0.000000 0.000000 -7.000000 0.000000 0.000000 10.877585 -1.896192 -1.864125 8.768470 8.731179 -59.472504 98.438301 2.761772 13.324376 -3.540494 4.890978 6.194712 -5.153820 4.988610 0.037356 10.247600 -2.002050 -0.100307 13.659700 2.322260 5.474340 -5.179099 -5.524679 -0.171968 10.498491 2.379151 0.144555 14.951743 -1.316555 -4.776468 
0.000000 23.112001 0.000000 0.000000 0.000000 0.000000 -0.347706 -2.649748 -0.386695 -0.614002 -1.098781 -0.555986 -0.027288 0.850182 -0.032406 0.000000 0.000000 0.000000 0.281988 -8.000000 -0.002729 0.000000 -4.000000 0.000000 -8.000000 0.000000 0.000000 -7.000000 0.000000 0.000000 10.401570 -1.940765 -1.976561 8.540669 8.235255 -59.476551 84.870216 1.472251 12.488656 -2.838905 3.568739 6.127014 -5.153820 4.988610 0.037356 10.247600 -2.002050 -0.100307 13.659700 2.322260 5.474340 -5.179099 -5.524679 -0.171968 10.498491 2.379151 0.144555 14.951743 -1.316555 -4.776468 
0.000000 23.112001 0.000000 0.000000 0.000000 0.000000 -0.351381 -3.022121 -0.446638 -0.645508 -1.251076 -0.582650 -0.036134 0.868568 -0.037742 0.000000 0.000000 0.000000 0.281988 -8.000000 -0.002729 0.000000 -4.000000 0.000000 -8.000000 0.000000 0.000000 -7.000000 0.000000 0.000000 9.935475 -1.983870 -2.087298 8.331860 7.750768 -59.479797 71.657944 0.219599 11.656828 -2.137842 2.277030 6.061137 -5.153820 4.988610 0.037356 10.247600 -2.002050 -0.100307 13.659700 2.322260 5.474340 -5.179099 -5.524679 -0.171968 10.498491 2.379151 0.144555 14.951743 -1.316555 -4.776468 
0.000000 23.112001 0.000000 0.000000 0.000000 0.000000 -0.357664 -3.281251 -0.495684 -0.674792 -1.354283 -0.616451 -0.048851 0.749015 -0.042478 0.000000 0.000000 0.000000 0.281988 -8.000000 -0.002729 0.000000 -4.000000 0.000000 -8.000000 0.000000 0.000000 -7.000000 0.000000 0.000000 9.527633 -2.020149 -2.185916 8.187148 7.329769 -59.480717 60.291836 -0.849831 10.892876 -1.486793 1.154690 6.004587 -5.153820 4.988610 0.037356 10.247600 -2.002050 -0.100307 13.659700 2.322260 5.474340 -5.179099 -5.524679 -0.171968 10.498491 2.379151 0.144555 14.951743 -1.316555 -4.776468 
0.000000 23.112001 0.000000 0.000000 0.000000 0.000000 -0.367257 -3.392252 -0.530279 -0.700971 -1.393353 -0.659177 -0.066455 0.452580 -0.046403 0.000000 0.000000 0.000000 0.281988 -8.000000 -0.002729 0.000000 -4.000000 0.000000 -8.000000 0.000000 0.000000 -7.000000 0.000000 0.000000 9.226374 -2.044246 -2.261991 8.151645 7.024309 -59.477768 52.262234 -1.589686 10.260782 -0.935241 0.340559 5.964870 -5.153820 4.988610 0.037356 10.247600 -2.002050 -0.100307 13.659700 2.322260 5.474340 -5.179099 -5.524679 -0.171968 10.498491 2.379151 0.144555 14.951743 -1.316555 -4.776468 
0.000000 23.112001 0.000000 0.000000 0.000000 0.000000 -0.380864 -3.320238 -0.546870 -0.723162 -1.353240 -0.712619 -0.089962 -0.059679 -0.049304 0.000000 0.000000 0.000000 0.281988 -8.000000 -0.002729 0.000000 -4.000000 0.000000 -8.000000 0.000000 0.000000 -7.000000 0.000000 0.000000 9.080032 -2.050802 -2.305102 8.270455 6.886438 -59.469425 49.059483 -1.853613 9.824533 -0.532674 -0.026522 5.949493 -5.153820 4.988610 0.037356 10.247600 -2.002050 -0.100307 13.659700 2.322260 5.474340 -5.179099 -5.524679 -0.171968 10.498491 2.379151 0.144555 14.951743 -1.316555 -4.776468 
0.000000 23.112001 0.000000 0.000000 0.000000 0.000000 -0.398794 -3.046165 -0.543380 -0.740738 -1.226451 -0.777397 -0.119756 -0.805476 -0.051041 0.000000 0.000000 0.000000 0.281988 -8.000000 -0.002729 0.000000 -4.000000 0.000000 -8.000000 0.000000 0.000000 -7.000000 0.000000 0.000000 9.120715 -2.035147 -2.308244 8.571746 6.950565 -59.454750 51.664200 -1.545728 9.628683 -0.314088 0.145367 5.963385 -5.153820 4.988610 0.037356 10.247600 -2.002050 -0.100307 13.659700 2.322260 5.474340 -5.179099 -5.524679 -0.171968 10.498491 2.379151 0.144555 14.951743 -1.316555 -4.776468 
